<?xml version="1.0" encoding="UTF-8"?><svg id="Layer_2" xmlns="http://www.w3.org/2000/svg" viewBox="0 0 38.82 39.63"><defs><style>.cls-1{fill:none;stroke:#f9f8f0;stroke-linecap:round;stroke-linejoin:round;}</style></defs><g id="Layer_3"><path class="cls-1" d="M.85,35.32c.07,1.38.32,3.03,1.57,3.61,1.33.62,2.79-.37,4.07-1.08,3.45-1.9,7.65-1.83,11.54-1.2s7.71,1.78,11.65,1.89c2.61.07,5.62-.58,6.83-2.89.55-1.06.62-2.3.68-3.49.35-6.97.7-13.94,1.05-20.91.08-1.69.17-3.4-.15-5.07s-1.08-3.3-2.42-4.35c-1.36-1.07-3.18-1.4-4.91-1.33s-3.42.51-5.12.85c-5.37,1.08-10.94,1.16-16.35.25-1.73-.29-3.51-.69-5.21-.24C1.69,1.99.97,3.91.91,6.09c-.08,3.23-.28,6.45-.35,9.68-.14,6.52-.04,13.04.29,19.54Z"/><path class="cls-1" d="M8.66,17.62c.7.73,1.77.92,2.77,1.06,1.21.18,2.54.33,3.57-.33.87-.56,1.32-1.63,1.36-2.67s-.31-2.06-.73-3c-.88-1.97-3.99-6.13-6.46-3.83-1.61,1.5-1.97,7.23-.51,8.77Z"/><path class="cls-1" d="M25.84,14.71c1.25,1.85,3.4,3.06,5.63,3.17.79.04,1.63-.07,2.26-.55.63-.48.95-1.28,1.03-2.07s-.05-1.58-.19-2.37c-.29-1.7-.6-3.45-1.5-4.93s-2.53-2.64-4.24-2.47c-4.64.47-5.12,6.06-2.99,9.21Z"/><path class="cls-1" d="M16.61,30.14c.71.98,1.95,1.58,3.13,1.46.19-.02.38-.06.56-.12,3.12-.98,2.47-5.42-.45-6.12s-5.16,2.15-3.25,4.77Z"/></g></svg>