<?xml version="1.0" encoding="UTF-8"?><svg id="Layer_2" xmlns="http://www.w3.org/2000/svg" viewBox="0 0 38.82 39.63"><defs><style>.cls-1{fill:none;}.cls-1,.cls-2{stroke:#f9f8f0;stroke-linecap:round;stroke-linejoin:round;}.cls-2{fill:#ff7bac;}</style></defs><g id="Layer_2-2"><path class="cls-1" d="M.85,35.32c.07,1.38.32,3.03,1.57,3.61,1.33.62,2.79-.37,4.07-1.08,3.45-1.9,7.65-1.83,11.54-1.2s7.71,1.78,11.65,1.89c2.61.07,5.62-.58,6.83-2.89.55-1.06.62-2.3.68-3.49.35-6.97.7-13.94,1.05-20.91.08-1.69.17-3.4-.15-5.07s-1.08-3.3-2.42-4.35c-1.36-1.07-3.18-1.4-4.91-1.33s-3.42.51-5.12.85c-5.37,1.08-10.94,1.16-16.35.25-1.73-.29-3.51-.69-5.21-.24C1.69,1.99.97,3.91.91,6.09c-.08,3.23-.28,6.45-.35,9.68-.14,6.52-.04,13.04.29,19.54Z"/><path class="cls-1" d="M4.97,12.15c1.89,1.43,4.36,2.08,6.71,1.75s4.55-1.62,5.98-3.52"/><path class="cls-1" d="M35.61,9.32c-1.23,1.86-3.23,3.19-5.43,3.6s-4.54-.11-6.36-1.41"/><path class="cls-1" d="M31.02,24.2c-1.2-.02-2.4-.03-3.6-.05-5.56-.08-11.12-.15-16.68-.23,1.47,3.06,2.89,6.36,5.94,7.85s6.77,1.7,9.83.22,4.61-4.4,4.52-7.79Z"/><path class="cls-2" d="M15.84,31.27c-1.72-1.08,1.4-3.94,3.06-5.1s4.06-1.38,5.71-.19c1.61,1.16,2.18,3.26,2.63,5.2,0,0-3.35,1.89-4.9,1.83s-6.09-1.48-6.51-1.74Z"/></g></svg>