<?xml version="1.0" encoding="UTF-8"?><svg id="Layer_2" xmlns="http://www.w3.org/2000/svg" viewBox="0 0 38.82 39.63"><defs><style>.cls-1{fill:none;stroke:#f9f8f0;stroke-linecap:round;stroke-linejoin:round;}</style></defs><g id="Layer_3"><path class="cls-1" d="M.85,35.32c.07,1.38.32,3.03,1.57,3.61,1.33.62,2.79-.37,4.07-1.08,3.45-1.9,7.65-1.83,11.54-1.2s7.71,1.78,11.65,1.89c2.61.07,5.62-.58,6.83-2.89.55-1.06.62-2.3.68-3.49.35-6.97.7-13.94,1.05-20.91.08-1.69.17-3.4-.15-5.07s-1.08-3.3-2.42-4.35c-1.36-1.07-3.18-1.4-4.91-1.33s-3.42.51-5.12.85c-5.37,1.08-10.94,1.16-16.35.25-1.73-.29-3.51-.69-5.21-.24C1.69,1.99.97,3.91.91,6.09c-.08,3.23-.28,6.45-.35,9.68-.14,6.52-.04,13.04.29,19.54Z"/><path class="cls-1" d="M7.18,30.28c-.39-1.39.63-2.91,1.99-3.4s2.91-.11,4.13.65,2.19,1.87,3.14,2.95c.9-1.2,1.83-2.42,3.11-3.2s3-1.02,4.25-.19c.82.54,1.4,1.5,2.36,1.7.92.19,1.8-.41,2.48-1.06s1.31-1.41,2.2-1.69,2.11.24,2.1,1.17"/><path class="cls-1" d="M6.92,10.17c1.1,1.76,3.03,2.98,5.09,3.21s4.21-.54,5.67-2.02"/><path class="cls-1" d="M25.65,11.07c1.43.86,2.93,1.74,4.59,1.91s3.54-.59,4.13-2.16"/><path class="cls-1" d="M11.88,17.32l.03,1.29c.22,0,.44-.01.66-.02-.35-1.02-.7-2.04-1.04-3.06"/><path class="cls-1" d="M14.94,25.07c-.85-.76-1.11-2.11-.59-3.13.27,1.07.53,2.14.8,3.21"/></g></svg>