<?xml version="1.0" encoding="UTF-8"?><svg id="Layer_2" xmlns="http://www.w3.org/2000/svg" viewBox="0 0 46.15 43.55"><defs><style>.cls-1{fill:#ffc5f8;}.cls-2{fill:#f9f8f0;}</style></defs><g id="Layer_1-2"><path class="cls-2" d="M7.57,2.8c.6,0,1.26.37,1.89,1.07.86.95,1.09,2.39.55,3.44-.4.79-1.31,1.34-2.2,1.34-.25,0-.48-.04-.7-.13-.89-.35-1.54-1.38-1.58-2.5-.04-1.06.28-2.06.86-2.66.24-.25.64-.55,1.18-.55M7.57,1.8c-1.76,0-3.13,1.88-3.04,4.25.06,1.43.89,2.88,2.22,3.4.34.13.7.19,1.06.19,1.25,0,2.51-.75,3.09-1.88.75-1.46.39-3.35-.7-4.56-.89-.98-1.8-1.4-2.63-1.4h0Z"/><path class="cls-2" d="M33.97,1c.12,0,.45,0,.77.73.3.71.34,1.55.33,2.35-.01,1.02-.09,2.32-.64,3.36-.05.1-.11.2-.17.29-.48.75-1.34,1.27-2.08,1.27-.17,0-.33-.02-.48-.07-.48-.16-1.95-.63-1.59-2.9.38-2.43,2.6-5.03,3.87-5.03M33.97,0c-3.1,0-7.8,8.19-2.59,9.88.26.08.52.12.79.12,1.15,0,2.29-.74,2.93-1.73.08-.12.15-.24.21-.37.6-1.15.74-2.51.75-3.82,0-.93-.04-1.89-.41-2.75-.4-.95-1.01-1.34-1.69-1.34h0Z"/><path class="cls-1" d="M24.15,27.94c-.39,2.46-.79,4.95-.54,7.43s1.19,4.99,3.08,6.61,4.82,2.14,6.93.81c1.64-1.04,2.51-2.94,3.09-4.79,1.25-3.99,1.54-8.27.86-12.39"/><path class="cls-2" d="M25.14,28.1c.04-.27-.14-.53-.42-.57-.27-.04-.53.14-.57.42-.39,2.46-.79,4.95-.54,7.43.24,2.48,1.19,4.99,3.08,6.61,1.89,1.62,4.82,2.14,6.93.81,1.64-1.04,2.51-2.94,3.09-4.79,1.25-3.99,1.54-8.27.86-12.39-.04-.27-.3-.46-.57-.41-.27.04-.46.3-.41.57.65,3.97.37,8.09-.83,11.93-.68,2.17-1.53,3.52-2.67,4.24-1.61,1.02-4.08.71-5.74-.72-1.52-1.3-2.49-3.42-2.74-5.95-.23-2.37.16-4.81.54-7.18"/><path class="cls-2" d="M.94,18.05c-.13-.24-.44-.33-.68-.2-.24.13-.33.44-.2.68,1.98,3.61,5.15,6.55,8.89,8.26,4.8,2.19,9.43,1.66,14.45,1.09,1.2-.14,2.42-.22,3.64-.3,4.1-.27,8.22-.54,11.74-3,4.33-3.03,5.98-8.56,7.35-13.66.07-.27-.09-.54-.35-.61s-.54.09-.61.35c-1.43,5.34-3.03,10.36-6.96,13.1-3.29,2.3-7.15,2.55-11.23,2.82-1.21.08-2.46.16-3.68.3-5.03.58-9.37,1.07-13.92-1-3.56-1.62-6.55-4.4-8.43-7.83"/><path class="cls-2" d="M30.34,32.43c-.04-.27-.29-.47-.56-.43-.27.04-.47.29-.43.56.07.56.15,1.11.22,1.67.35,2.67.7,5.35,1.06,8.02.04.27.29.47.56.43.27-.04.47-.29.43-.56l-1.06-8.02-.22-1.67"/></g></svg>